<svg width="128" height="128" viewBox="0 0 128 128" fill="none" xmlns="http://www.w3.org/2000/svg">
<path d="M113.404 64C113.404 67.4043 94.3404 64 63.7021 128C32.383 64 14 66.0426 14 64C14 28.6538 36.2524 0 63.7021 0C91.1519 0 113.404 28.6538 113.404 64Z" fill="#F99601"/>
<circle cx="63.5" cy="45.5" r="29.5" fill="white" stroke="#F99601" stroke-width="2"/>
<path d="M74.6883 40.7999L74.6883 40.8C74.6897 41.8864 75.1221 42.9279 75.8906 43.6959C76.6592 44.4638 77.701 44.8953 78.7875 44.8958H78.7876C79.598 44.8954 80.3901 44.6548 81.0638 44.2043C81.7374 43.7538 82.2623 43.1136 82.5722 42.3647C82.882 41.6159 82.9628 40.792 82.8044 39.9972C82.6459 39.2024 82.2554 38.4725 81.6821 37.8996C81.1088 37.3268 80.3786 36.9369 79.5836 36.7791C78.7887 36.6213 77.9649 36.7028 77.2163 37.0132C76.4677 37.3237 75.828 37.8491 75.378 38.5231C74.928 39.1972 74.688 39.9895 74.6883 40.7999ZM76.8635 38.8758C77.3738 38.3656 78.0659 38.0789 78.7875 38.0789C79.3252 38.0792 79.8507 38.2389 80.2976 38.5378C80.7446 38.8368 81.0929 39.2615 81.2985 39.7583C81.5042 40.2551 81.5579 40.8018 81.4529 41.3291C81.3479 41.8565 81.089 42.3409 80.7088 42.7211C80.3285 43.1013 79.8441 43.3603 79.3168 43.4652C78.7894 43.5702 78.2428 43.5165 77.746 43.3109C77.2491 43.1052 76.8244 42.7569 76.5255 42.31C76.2266 41.863 76.0669 41.3375 76.0666 40.7998C76.0666 40.0782 76.3532 39.3861 76.8635 38.8758Z" fill="black" stroke="black" stroke-width="0.226087"/>
<path d="M78.7875 36.1956L78.7878 36.1956C78.9704 36.1951 79.1454 36.1222 79.2744 35.9928C79.4033 35.8635 79.4758 35.6883 79.4758 35.5057L79.4758 32.837C79.4803 32.7445 79.4661 32.652 79.4341 32.5651C79.4017 32.4772 79.3517 32.3968 79.2873 32.3288C79.2228 32.2609 79.1452 32.2067 79.0591 32.1697C78.973 32.1327 78.8803 32.1136 78.7867 32.1136C78.693 32.1136 78.6003 32.1327 78.5142 32.1697C78.4281 32.2067 78.3505 32.2609 78.286 32.3288C78.2216 32.3968 78.1716 32.4772 78.1392 32.5651C78.1072 32.652 78.0931 32.7445 78.0975 32.837V35.5057C78.0975 35.6886 78.1702 35.8641 78.2996 35.9935C78.429 36.1229 78.6045 36.1956 78.7875 36.1956Z" fill="black" stroke="black" stroke-width="0.226087"/>
<path d="M78.0962 46.0849L78.096 46.0849V46.0909V48.764H78.0958L78.0962 48.77C78.1055 48.9464 78.1822 49.1125 78.3104 49.234C78.4386 49.3556 78.6085 49.4233 78.7851 49.4233C78.9617 49.4233 79.1317 49.3556 79.2598 49.234C79.388 49.1125 79.4647 48.9464 79.4741 48.77L79.4742 48.77V48.764V46.0909H79.4744L79.4741 46.0849C79.4647 45.9085 79.388 45.7424 79.2598 45.6209C79.1317 45.4993 78.9617 45.4316 78.7851 45.4316C78.6085 45.4316 78.4386 45.4993 78.3104 45.6209C78.1822 45.7424 78.1055 45.9085 78.0962 46.0849Z" fill="black" stroke="black" stroke-width="0.226087"/>
<path d="M70.819 41.488L70.819 41.4881H70.825H73.4998V41.4883L73.5058 41.488C73.6822 41.4786 73.8482 41.4019 73.9698 41.2738C74.0913 41.1456 74.1591 40.9757 74.1591 40.799C74.1591 40.6224 74.0913 40.4525 73.9698 40.3243C73.8482 40.1961 73.6822 40.1194 73.5058 40.1101L73.5058 40.1099H73.4998H70.825V40.1098L70.819 40.1101C70.6426 40.1194 70.4765 40.1961 70.355 40.3243C70.2335 40.4525 70.1657 40.6224 70.1657 40.799C70.1657 40.9757 70.2335 41.1456 70.355 41.2738C70.4765 41.4019 70.6426 41.4786 70.819 41.488Z" fill="black" stroke="black" stroke-width="0.226087"/>
<path d="M86.756 40.1101L86.756 40.1099H86.75H84.0769V40.1098L84.0709 40.1101C83.8945 40.1194 83.7284 40.1961 83.6069 40.3243C83.4853 40.4525 83.4176 40.6224 83.4176 40.799C83.4176 40.9757 83.4853 41.1456 83.6069 41.2738C83.7284 41.4019 83.8945 41.4786 84.0709 41.488L84.0709 41.4881H84.0769H86.75V41.4883L86.756 41.488C86.9324 41.4786 87.0985 41.4019 87.22 41.2738C87.3416 41.1456 87.4093 40.9757 87.4093 40.799C87.4093 40.6224 87.3416 40.4525 87.22 40.3243C87.0985 40.1961 86.9324 40.1194 86.756 40.1101Z" fill="black" stroke="black" stroke-width="0.226087"/>
<path d="M82.0389 44.0543L82.0389 44.0543L82.0381 44.0552C81.9109 44.1848 81.8397 44.3591 81.8397 44.5406C81.8397 44.7221 81.9109 44.8964 82.0381 45.026L82.038 45.026L82.0388 45.0268L83.9252 46.9132C83.986 46.9849 84.0608 47.0435 84.1451 47.0853C84.231 47.1279 84.3248 47.1521 84.4205 47.1565C84.5163 47.1608 84.6119 47.1451 84.7012 47.1105C84.7906 47.0758 84.8717 47.0229 84.9395 46.9551C85.0073 46.8873 85.0602 46.8062 85.0949 46.7168C85.1295 46.6275 85.1452 46.5319 85.1409 46.4361C85.1366 46.3404 85.1123 46.2466 85.0697 46.1607C85.0279 46.0764 84.9694 46.0016 84.8976 45.9408L83.0112 44.0544L83.0111 44.0543C82.8821 43.9256 82.7072 43.8533 82.525 43.8533C82.3428 43.8533 82.1679 43.9256 82.0389 44.0543Z" fill="black" stroke="black" stroke-width="0.226087"/>
<path d="M74.5505 37.5401C74.6113 37.6119 74.6861 37.6705 74.7704 37.7123C74.8563 37.7549 74.9501 37.7791 75.0458 37.7835C75.1416 37.7878 75.2372 37.7721 75.3266 37.7375C75.4159 37.7028 75.4971 37.6499 75.5648 37.5821C75.6326 37.5143 75.6855 37.4332 75.7202 37.3438C75.7549 37.2545 75.7705 37.1589 75.7662 37.0631C75.7619 36.9674 75.7377 36.8736 75.6951 36.7877C75.6533 36.7035 75.5947 36.6287 75.523 36.5679L73.6433 34.6833C73.5825 34.6115 73.5076 34.5529 73.4233 34.5111C73.3375 34.4685 73.2437 34.4443 73.1479 34.44C73.0522 34.4356 72.9566 34.4513 72.8672 34.486C72.7779 34.5207 72.6967 34.5736 72.6289 34.6413C72.5612 34.7091 72.5083 34.7903 72.4736 34.8796C72.4389 34.969 72.4233 35.0646 72.4276 35.1603C72.4319 35.2561 72.4561 35.3499 72.4987 35.4357C72.5405 35.52 72.5991 35.5948 72.6708 35.6556L74.5505 37.5401Z" fill="black" stroke="black" stroke-width="0.226087"/>
<path d="M82.5241 37.7458C82.7059 37.7479 82.8812 37.678 83.0116 37.5513L83.0116 37.5514L83.0128 37.5502L84.9027 35.6603L84.903 35.6606L84.9095 35.6528C85.0198 35.5205 85.0767 35.3518 85.0689 35.1798C85.0611 35.0077 84.9893 34.8448 84.8675 34.7231C84.7458 34.6013 84.5829 34.5295 84.4108 34.5217C84.2388 34.5139 84.0701 34.5708 83.9378 34.6811L83.9375 34.6807L83.9305 34.6877L82.039 36.5695L82.039 36.5695L82.0385 36.57C81.9427 36.6666 81.8776 36.7894 81.8513 36.9228C81.8251 37.0563 81.8389 37.1946 81.891 37.3203C81.9432 37.4459 82.0313 37.5534 82.1443 37.6291C82.2569 37.7045 82.3879 37.7453 82.5241 37.7458ZM82.5241 37.7458C82.5243 37.7458 82.5245 37.7458 82.5246 37.7458L82.525 37.6327L82.5236 37.7458C82.5238 37.7458 82.5239 37.7458 82.5241 37.7458Z" fill="black" stroke="black" stroke-width="0.226087"/>
<path d="M72.6643 45.9444L72.6639 45.944L72.6574 45.9519C72.5471 46.0841 72.4902 46.2529 72.498 46.4249C72.5058 46.5969 72.5776 46.7598 72.6994 46.8816C72.8212 47.0034 72.9841 47.0752 73.1561 47.083C73.3281 47.0907 73.4968 47.0339 73.6291 46.9236L73.6294 46.924L73.6366 46.9167L75.523 45.0303C75.5948 44.9695 75.6534 44.8947 75.6952 44.8104C75.7378 44.7246 75.762 44.6308 75.7663 44.535C75.7706 44.4393 75.755 44.3437 75.7203 44.2543C75.6856 44.165 75.6327 44.0838 75.5649 44.016C75.4972 43.9483 75.416 43.8953 75.3267 43.8607C75.2373 43.826 75.1417 43.8103 75.046 43.8147C74.9502 43.819 74.8564 43.8432 74.7705 43.8858C74.6863 43.9276 74.6115 43.9862 74.5507 44.0579L72.6643 45.9444Z" fill="black" stroke="black" stroke-width="0.226087"/>
<mask id="path-12-outside-1_18_33" maskUnits="userSpaceOnUse" x="39.6739" y="27.1539" width="32" height="39" fill="black">
<rect fill="white" x="39.6739" y="27.1539" width="32" height="39"/>
<path d="M44.5503 49.1978C45.4438 49.1955 46.3058 48.868 46.9753 48.2764C47.6449 47.6849 48.0762 46.8699 48.1887 45.9836C48.208 45.8148 48.215 45.6448 48.2098 45.475C48.6369 45.7374 49.1139 45.9079 49.6106 45.9755C49.7648 45.9949 49.92 46.0046 50.0753 46.0047C50.9691 46.0026 51.8315 45.6754 52.5018 45.0843C53.1721 44.4932 53.6046 43.6785 53.7186 42.7921C53.7332 42.6767 53.73 42.5597 53.7332 42.4443C54.1218 42.6628 54.5479 42.8067 54.9893 42.8685C55.1434 42.8892 55.2987 42.8995 55.4541 42.8993C55.8721 42.8972 56.2866 42.823 56.6793 42.68L69.6355 65.1163C69.6852 65.2044 69.7574 65.2776 69.8448 65.3285C69.9322 65.3793 70.0316 65.4059 70.1327 65.4056C70.2339 65.4063 70.3334 65.3793 70.4203 65.3276C70.4859 65.29 70.5433 65.2399 70.5894 65.1801C70.6355 65.1203 70.6693 65.052 70.689 64.979C70.7086 64.9061 70.7136 64.83 70.7038 64.7552C70.6939 64.6803 70.6694 64.6081 70.6316 64.5427L57.6868 42.1177C58.0715 41.8249 58.3942 41.4587 58.6363 41.0403C58.8784 40.6219 59.0351 40.1596 59.0973 39.6802C59.1103 39.5762 59.0876 39.4722 59.0973 39.3682C59.4818 39.5798 59.9013 39.7202 60.3356 39.7826C60.4898 39.8019 60.645 39.8117 60.8003 39.8118C61.6923 39.808 62.5526 39.4807 63.2216 38.8909C63.8907 38.301 64.3231 37.4885 64.4387 36.6041C64.4533 36.4871 64.4501 36.3717 64.4533 36.2547C64.8419 36.4735 65.2679 36.6179 65.7095 36.6805C65.8636 36.6999 66.0188 36.7096 66.1742 36.7097C67.068 36.7079 67.9306 36.3809 68.601 35.7897C69.2714 35.1986 69.7038 34.3837 69.8175 33.4971C69.9025 32.7908 69.777 32.0751 69.4567 31.4398C69.4558 31.3481 69.4318 31.2581 69.3868 31.1782C68.1843 29.0917 65.5876 28.0208 62.0158 28.1671C58.1233 28.4558 54.3536 29.6583 51.013 31.6771L51 31.6836H50.9886C47.5677 33.57 44.6385 36.2347 42.4378 39.4625C40.5382 42.4638 40.1628 45.267 41.3605 47.3535C41.3735 47.3746 41.3978 47.3843 41.4125 47.4038C41.6937 47.8808 42.0804 48.2871 42.5429 48.5916C43.0054 48.8961 43.5314 49.0907 44.0807 49.1605C44.2363 49.1833 44.3932 49.1958 44.5503 49.1978ZM52.5762 42.6458C52.489 43.3086 52.1438 43.9101 51.6156 44.3197C51.0873 44.7292 50.4188 44.9137 49.7552 44.8331C49.1747 44.7599 48.6387 44.4836 48.2423 44.0531L52.482 41.6042C52.5884 41.9405 52.6205 42.2959 52.5762 42.6458ZM57.955 39.5405C57.8707 40.2044 57.5261 40.8076 56.9971 41.2175C56.468 41.6273 55.7979 41.8103 55.134 41.7261C54.5527 41.6536 54.016 41.3772 53.6195 40.9461L57.8656 38.4956C57.969 38.8336 57.9995 39.1898 57.955 39.5405ZM63.2947 36.453C63.2107 37.1175 62.8669 37.7217 62.3385 38.1334C61.8102 38.5452 61.1403 38.7309 60.4753 38.65C59.8925 38.5786 59.3534 38.3042 58.9527 37.8748L63.2021 35.4211C63.3073 35.756 63.3389 36.1096 63.2947 36.4578V36.453ZM68.6751 33.346C68.5879 34.0083 68.2429 34.6094 67.7149 35.0186C67.187 35.4279 66.5188 35.6122 65.8557 35.5316C65.2741 35.4593 64.7372 35.1822 64.3412 34.75L68.5808 32.3125C68.6868 32.6477 68.7189 33.002 68.6751 33.3508V33.346ZM62.063 29.3176C64.871 29.2055 66.9591 29.8961 68.0657 31.2773L63.8407 33.7148C63.6267 33.4056 63.3899 33.1129 63.1322 32.839C63.0851 32.7886 63.0331 32.7415 62.9843 32.6927C62.6182 32.3125 62.2141 31.9705 61.7786 31.6722C61.7477 31.6511 61.7136 31.6348 61.6811 31.6137C61.2313 31.3178 60.7541 31.0658 60.256 30.8613C60.23 30.85 60.2056 30.8353 60.1796 30.8256C59.6715 30.6262 59.1468 30.4723 58.6115 30.3657C58.5432 30.3511 58.4766 30.3332 58.4067 30.3202C58.0307 30.2496 57.6509 30.2008 57.2692 30.174C58.8246 29.6872 60.4353 29.3995 62.063 29.3176ZM54.8512 31.4691C54.9617 31.448 55.0706 31.4463 55.1762 31.4285C55.5776 31.3661 55.9825 31.3292 56.3885 31.318C56.5591 31.318 56.7248 31.318 56.8922 31.3293C57.2306 31.3392 57.5681 31.3691 57.903 31.4187C58.0655 31.4431 58.2426 31.4707 58.4083 31.5065C58.739 31.5773 59.0647 31.6696 59.3833 31.7827C59.5231 31.8298 59.6661 31.8688 59.801 31.9241C60.2395 32.1002 60.6601 32.3179 61.0571 32.5741C61.4413 32.8327 61.7979 33.13 62.1215 33.4613C62.2255 33.567 62.3148 33.6888 62.4123 33.801C62.5488 33.9635 62.6707 34.1373 62.7926 34.3112L58.2296 36.9551L58.1662 36.8625C58.0427 36.6658 57.916 36.4708 57.7876 36.2758C57.7502 36.2222 57.7161 36.1653 57.6787 36.1133C57.513 35.8718 57.3434 35.6345 57.1701 35.4016C57.1067 35.3171 57.0417 35.2391 56.9783 35.153C56.8613 35.0018 56.746 34.8523 56.6257 34.7077C56.551 34.6151 56.4746 34.5257 56.3982 34.4347C56.2877 34.3047 56.1756 34.178 56.0635 34.0528C55.9838 33.9651 55.901 33.8773 55.823 33.7928C55.7027 33.6645 55.5792 33.5426 55.4573 33.4223C55.3875 33.3541 55.3192 33.281 55.2493 33.216C55.0657 33.0437 54.8837 32.891 54.7001 32.7285C54.6286 32.67 54.5571 32.618 54.4856 32.566C54.3637 32.4717 54.2418 32.3791 54.1216 32.2946C54.0436 32.241 53.9591 32.1922 53.8876 32.1418C53.7706 32.0671 53.6536 31.9972 53.5366 31.9338C53.4976 31.9127 53.457 31.8835 53.418 31.864C53.8856 31.698 54.3646 31.566 54.8512 31.4691ZM51.572 32.683C51.572 32.683 51.5915 32.683 51.5996 32.683C51.7156 32.6237 51.8448 32.5951 51.975 32.6001C52.0221 32.6001 52.079 32.6196 52.1375 32.6261C52.259 32.6423 52.3787 32.6701 52.495 32.709C52.5697 32.735 52.6575 32.774 52.729 32.8097C52.8615 32.8672 52.9907 32.9323 53.1157 33.0047C53.2051 33.0567 53.2977 33.1152 53.392 33.177C53.5333 33.2712 53.6812 33.3801 53.8323 33.502C53.9282 33.5767 54.0241 33.6498 54.1232 33.7343C54.2955 33.8806 54.4742 34.0496 54.6546 34.2218C54.7391 34.3063 54.8171 34.3843 54.9097 34.4688C55.1795 34.7467 55.4541 35.0506 55.732 35.3902C55.7677 35.4341 55.8035 35.4877 55.8392 35.5316C56.0808 35.8317 56.3229 36.1567 56.5656 36.5066C56.6631 36.6463 56.759 36.8007 56.8565 36.947C56.9816 37.1387 57.1067 37.3418 57.2318 37.545L52.95 40.002C52.8622 39.8395 52.7761 39.677 52.6932 39.5145C52.5973 39.326 52.4998 39.1391 52.4121 38.9506C52.2902 38.6922 52.1813 38.4371 52.0757 38.1803C52.0026 38.0065 51.9246 37.8293 51.858 37.6571C51.7523 37.3776 51.6646 37.1062 51.5801 36.8348C51.5346 36.6951 51.481 36.5505 51.442 36.4123C51.3316 36.0279 51.2415 35.6379 51.1722 35.244C51.121 34.9402 51.089 34.6336 51.0763 34.3258C51.052 33.4873 51.2242 32.8845 51.572 32.683ZM46.775 39.8167C46.788 39.6542 46.775 39.4836 46.8075 39.3146C46.8838 38.8119 47.0067 38.3174 47.1747 37.8375C47.3475 37.3643 47.5601 36.9066 47.8101 36.4692C47.8767 36.349 47.9498 36.2336 48.0213 36.1166C48.2342 35.7671 48.4692 35.4317 48.725 35.1123C48.7965 35.0246 48.8615 34.932 48.9378 34.8442C49.2459 34.4967 49.5777 34.1709 49.9307 33.8692C49.9307 33.9228 49.9307 33.9846 49.9307 34.0317C49.9307 34.0788 49.9307 34.1942 49.9307 34.2706C49.936 34.6582 49.9697 35.0449 50.0315 35.4276C50.1062 35.8554 50.2033 36.279 50.3223 36.6967C50.363 36.8413 50.4198 36.9925 50.467 37.1403C50.5596 37.4393 50.6555 37.7383 50.7725 38.0471C50.8375 38.2193 50.9155 38.3948 50.9886 38.5703C51.1088 38.8612 51.2291 39.1488 51.3688 39.443C51.455 39.6282 51.5525 39.8135 51.6467 40.0003C51.741 40.1872 51.832 40.3838 51.936 40.5772L47.3681 43.2276C47.2966 43.0651 47.2251 42.9172 47.165 42.758C47.0951 42.5678 47.0203 42.381 46.9667 42.186C46.8979 41.9105 46.8464 41.631 46.8123 41.3491C46.7863 41.159 46.749 40.9705 46.7392 40.7771C46.7293 40.4565 46.7413 40.1357 46.775 39.8167ZM43.4112 40.0848C44.2929 38.7253 45.3422 37.4821 46.5345 36.3847C46.365 36.7292 46.2164 37.0836 46.0892 37.4458C45.9123 37.9518 45.7796 38.4721 45.6927 39.001C45.6927 39.0497 45.6716 39.0985 45.6651 39.1488C45.5933 39.6329 45.5639 40.1222 45.5773 40.6113C45.5773 40.6812 45.5773 40.7511 45.5773 40.821C45.6006 41.2878 45.6653 41.7517 45.7707 42.2071C45.7886 42.2818 45.8065 42.3566 45.826 42.4297C45.9431 42.8765 46.1008 43.3117 46.2972 43.7297C46.3102 43.7573 46.3151 43.7882 46.3281 43.8158L42.1031 46.2533C41.8297 45.194 41.8056 44.0857 42.0325 43.0154C42.2595 41.9452 42.7314 40.9421 43.4112 40.0848ZM46.9521 44.7973C47.058 45.1338 47.0896 45.4892 47.0447 45.839C46.9867 46.3141 46.7941 46.7628 46.4896 47.1322C46.1851 47.5016 45.7814 47.7763 45.3261 47.924C44.8707 48.0717 44.3827 48.0862 43.9193 47.9658C43.456 47.8455 43.0367 47.5952 42.7108 47.2446L46.9521 44.7973Z"/>
</mask>
<path d="M44.5503 49.1978C45.4438 49.1955 46.3058 48.868 46.9753 48.2764C47.6449 47.6849 48.0762 46.8699 48.1887 45.9836C48.208 45.8148 48.215 45.6448 48.2098 45.475C48.6369 45.7374 49.1139 45.9079 49.6106 45.9755C49.7648 45.9949 49.92 46.0046 50.0753 46.0047C50.9691 46.0026 51.8315 45.6754 52.5018 45.0843C53.1721 44.4932 53.6046 43.6785 53.7186 42.7921C53.7332 42.6767 53.73 42.5597 53.7332 42.4443C54.1218 42.6628 54.5479 42.8067 54.9893 42.8685C55.1434 42.8892 55.2987 42.8995 55.4541 42.8993C55.8721 42.8972 56.2866 42.823 56.6793 42.68L69.6355 65.1163C69.6852 65.2044 69.7574 65.2776 69.8448 65.3285C69.9322 65.3793 70.0316 65.4059 70.1327 65.4056C70.2339 65.4063 70.3334 65.3793 70.4203 65.3276C70.4859 65.29 70.5433 65.2399 70.5894 65.1801C70.6355 65.1203 70.6693 65.052 70.689 64.979C70.7086 64.9061 70.7136 64.83 70.7038 64.7552C70.6939 64.6803 70.6694 64.6081 70.6316 64.5427L57.6868 42.1177C58.0715 41.8249 58.3942 41.4587 58.6363 41.0403C58.8784 40.6219 59.0351 40.1596 59.0973 39.6802C59.1103 39.5762 59.0876 39.4722 59.0973 39.3682C59.4818 39.5798 59.9013 39.7202 60.3356 39.7826C60.4898 39.8019 60.645 39.8117 60.8003 39.8118C61.6923 39.808 62.5526 39.4807 63.2216 38.8909C63.8907 38.301 64.3231 37.4885 64.4387 36.6041C64.4533 36.4871 64.4501 36.3717 64.4533 36.2547C64.8419 36.4735 65.2679 36.6179 65.7095 36.6805C65.8636 36.6999 66.0188 36.7096 66.1742 36.7097C67.068 36.7079 67.9306 36.3809 68.601 35.7897C69.2714 35.1986 69.7038 34.3837 69.8175 33.4971C69.9025 32.7908 69.777 32.0751 69.4567 31.4398C69.4558 31.3481 69.4318 31.2581 69.3868 31.1782C68.1843 29.0917 65.5876 28.0208 62.0158 28.1671C58.1233 28.4558 54.3536 29.6583 51.013 31.6771L51 31.6836H50.9886C47.5677 33.57 44.6385 36.2347 42.4378 39.4625C40.5382 42.4638 40.1628 45.267 41.3605 47.3535C41.3735 47.3746 41.3978 47.3843 41.4125 47.4038C41.6937 47.8808 42.0804 48.2871 42.5429 48.5916C43.0054 48.8961 43.5314 49.0907 44.0807 49.1605C44.2363 49.1833 44.3932 49.1958 44.5503 49.1978ZM52.5762 42.6458C52.489 43.3086 52.1438 43.9101 51.6156 44.3197C51.0873 44.7292 50.4188 44.9137 49.7552 44.8331C49.1747 44.7599 48.6387 44.4836 48.2423 44.0531L52.482 41.6042C52.5884 41.9405 52.6205 42.2959 52.5762 42.6458ZM57.955 39.5405C57.8707 40.2044 57.5261 40.8076 56.9971 41.2175C56.468 41.6273 55.7979 41.8103 55.134 41.7261C54.5527 41.6536 54.016 41.3772 53.6195 40.9461L57.8656 38.4956C57.969 38.8336 57.9995 39.1898 57.955 39.5405ZM63.2947 36.453C63.2107 37.1175 62.8669 37.7217 62.3385 38.1334C61.8102 38.5452 61.1403 38.7309 60.4753 38.65C59.8925 38.5786 59.3534 38.3042 58.9527 37.8748L63.2021 35.4211C63.3073 35.756 63.3389 36.1096 63.2947 36.4578V36.453ZM68.6751 33.346C68.5879 34.0083 68.2429 34.6094 67.7149 35.0186C67.187 35.4279 66.5188 35.6122 65.8557 35.5316C65.2741 35.4593 64.7372 35.1822 64.3412 34.75L68.5808 32.3125C68.6868 32.6477 68.7189 33.002 68.6751 33.3508V33.346ZM62.063 29.3176C64.871 29.2055 66.9591 29.8961 68.0657 31.2773L63.8407 33.7148C63.6267 33.4056 63.3899 33.1129 63.1322 32.839C63.0851 32.7886 63.0331 32.7415 62.9843 32.6927C62.6182 32.3125 62.2141 31.9705 61.7786 31.6722C61.7477 31.6511 61.7136 31.6348 61.6811 31.6137C61.2313 31.3178 60.7541 31.0658 60.256 30.8613C60.23 30.85 60.2056 30.8353 60.1796 30.8256C59.6715 30.6262 59.1468 30.4723 58.6115 30.3657C58.5432 30.3511 58.4766 30.3332 58.4067 30.3202C58.0307 30.2496 57.6509 30.2008 57.2692 30.174C58.8246 29.6872 60.4353 29.3995 62.063 29.3176ZM54.8512 31.4691C54.9617 31.448 55.0706 31.4463 55.1762 31.4285C55.5776 31.3661 55.9825 31.3292 56.3885 31.318C56.5591 31.318 56.7248 31.318 56.8922 31.3293C57.2306 31.3392 57.5681 31.3691 57.903 31.4187C58.0655 31.4431 58.2426 31.4707 58.4083 31.5065C58.739 31.5773 59.0647 31.6696 59.3833 31.7827C59.5231 31.8298 59.6661 31.8688 59.801 31.9241C60.2395 32.1002 60.6601 32.3179 61.0571 32.5741C61.4413 32.8327 61.7979 33.13 62.1215 33.4613C62.2255 33.567 62.3148 33.6888 62.4123 33.801C62.5488 33.9635 62.6707 34.1373 62.7926 34.3112L58.2296 36.9551L58.1662 36.8625C58.0427 36.6658 57.916 36.4708 57.7876 36.2758C57.7502 36.2222 57.7161 36.1653 57.6787 36.1133C57.513 35.8718 57.3434 35.6345 57.1701 35.4016C57.1067 35.3171 57.0417 35.2391 56.9783 35.153C56.8613 35.0018 56.746 34.8523 56.6257 34.7077C56.551 34.6151 56.4746 34.5257 56.3982 34.4347C56.2877 34.3047 56.1756 34.178 56.0635 34.0528C55.9838 33.9651 55.901 33.8773 55.823 33.7928C55.7027 33.6645 55.5792 33.5426 55.4573 33.4223C55.3875 33.3541 55.3192 33.281 55.2493 33.216C55.0657 33.0437 54.8837 32.891 54.7001 32.7285C54.6286 32.67 54.5571 32.618 54.4856 32.566C54.3637 32.4717 54.2418 32.3791 54.1216 32.2946C54.0436 32.241 53.9591 32.1922 53.8876 32.1418C53.7706 32.0671 53.6536 31.9972 53.5366 31.9338C53.4976 31.9127 53.457 31.8835 53.418 31.864C53.8856 31.698 54.3646 31.566 54.8512 31.4691ZM51.572 32.683C51.572 32.683 51.5915 32.683 51.5996 32.683C51.7156 32.6237 51.8448 32.5951 51.975 32.6001C52.0221 32.6001 52.079 32.6196 52.1375 32.6261C52.259 32.6423 52.3787 32.6701 52.495 32.709C52.5697 32.735 52.6575 32.774 52.729 32.8097C52.8615 32.8672 52.9907 32.9323 53.1157 33.0047C53.2051 33.0567 53.2977 33.1152 53.392 33.177C53.5333 33.2712 53.6812 33.3801 53.8323 33.502C53.9282 33.5767 54.0241 33.6498 54.1232 33.7343C54.2955 33.8806 54.4742 34.0496 54.6546 34.2218C54.7391 34.3063 54.8171 34.3843 54.9097 34.4688C55.1795 34.7467 55.4541 35.0506 55.732 35.3902C55.7677 35.4341 55.8035 35.4877 55.8392 35.5316C56.0808 35.8317 56.3229 36.1567 56.5656 36.5066C56.6631 36.6463 56.759 36.8007 56.8565 36.947C56.9816 37.1387 57.1067 37.3418 57.2318 37.545L52.95 40.002C52.8622 39.8395 52.7761 39.677 52.6932 39.5145C52.5973 39.326 52.4998 39.1391 52.4121 38.9506C52.2902 38.6922 52.1813 38.4371 52.0757 38.1803C52.0026 38.0065 51.9246 37.8293 51.858 37.6571C51.7523 37.3776 51.6646 37.1062 51.5801 36.8348C51.5346 36.6951 51.481 36.5505 51.442 36.4123C51.3316 36.0279 51.2415 35.6379 51.1722 35.244C51.121 34.9402 51.089 34.6336 51.0763 34.3258C51.052 33.4873 51.2242 32.8845 51.572 32.683ZM46.775 39.8167C46.788 39.6542 46.775 39.4836 46.8075 39.3146C46.8838 38.8119 47.0067 38.3174 47.1747 37.8375C47.3475 37.3643 47.5601 36.9066 47.8101 36.4692C47.8767 36.349 47.9498 36.2336 48.0213 36.1166C48.2342 35.7671 48.4692 35.4317 48.725 35.1123C48.7965 35.0246 48.8615 34.932 48.9378 34.8442C49.2459 34.4967 49.5777 34.1709 49.9307 33.8692C49.9307 33.9228 49.9307 33.9846 49.9307 34.0317C49.9307 34.0788 49.9307 34.1942 49.9307 34.2706C49.936 34.6582 49.9697 35.0449 50.0315 35.4276C50.1062 35.8554 50.2033 36.279 50.3223 36.6967C50.363 36.8413 50.4198 36.9925 50.467 37.1403C50.5596 37.4393 50.6555 37.7383 50.7725 38.0471C50.8375 38.2193 50.9155 38.3948 50.9886 38.5703C51.1088 38.8612 51.2291 39.1488 51.3688 39.443C51.455 39.6282 51.5525 39.8135 51.6467 40.0003C51.741 40.1872 51.832 40.3838 51.936 40.5772L47.3681 43.2276C47.2966 43.0651 47.2251 42.9172 47.165 42.758C47.0951 42.5678 47.0203 42.381 46.9667 42.186C46.8979 41.9105 46.8464 41.631 46.8123 41.3491C46.7863 41.159 46.749 40.9705 46.7392 40.7771C46.7293 40.4565 46.7413 40.1357 46.775 39.8167ZM43.4112 40.0848C44.2929 38.7253 45.3422 37.4821 46.5345 36.3847C46.365 36.7292 46.2164 37.0836 46.0892 37.4458C45.9123 37.9518 45.7796 38.4721 45.6927 39.001C45.6927 39.0497 45.6716 39.0985 45.6651 39.1488C45.5933 39.6329 45.5639 40.1222 45.5773 40.6113C45.5773 40.6812 45.5773 40.7511 45.5773 40.821C45.6006 41.2878 45.6653 41.7517 45.7707 42.2071C45.7886 42.2818 45.8065 42.3566 45.826 42.4297C45.9431 42.8765 46.1008 43.3117 46.2972 43.7297C46.3102 43.7573 46.3151 43.7882 46.3281 43.8158L42.1031 46.2533C41.8297 45.194 41.8056 44.0857 42.0325 43.0154C42.2595 41.9452 42.7314 40.9421 43.4112 40.0848ZM46.9521 44.7973C47.058 45.1338 47.0896 45.4892 47.0447 45.839C46.9867 46.3141 46.7941 46.7628 46.4896 47.1322C46.1851 47.5016 45.7814 47.7763 45.3261 47.924C44.8707 48.0717 44.3827 48.0862 43.9193 47.9658C43.456 47.8455 43.0367 47.5952 42.7108 47.2446L46.9521 44.7973Z" fill="black"/>
<path d="M44.5503 49.1978C45.4438 49.1955 46.3058 48.868 46.9753 48.2764C47.6449 47.6849 48.0762 46.8699 48.1887 45.9836C48.208 45.8148 48.215 45.6448 48.2098 45.475C48.6369 45.7374 49.1139 45.9079 49.6106 45.9755C49.7648 45.9949 49.92 46.0046 50.0753 46.0047C50.9691 46.0026 51.8315 45.6754 52.5018 45.0843C53.1721 44.4932 53.6046 43.6785 53.7186 42.7921C53.7332 42.6767 53.73 42.5597 53.7332 42.4443C54.1218 42.6628 54.5479 42.8067 54.9893 42.8685C55.1434 42.8892 55.2987 42.8995 55.4541 42.8993C55.8721 42.8972 56.2866 42.823 56.6793 42.68L69.6355 65.1163C69.6852 65.2044 69.7574 65.2776 69.8448 65.3285C69.9322 65.3793 70.0316 65.4059 70.1327 65.4056C70.2339 65.4063 70.3334 65.3793 70.4203 65.3276C70.4859 65.29 70.5433 65.2399 70.5894 65.1801C70.6355 65.1203 70.6693 65.052 70.689 64.979C70.7086 64.9061 70.7136 64.83 70.7038 64.7552C70.6939 64.6803 70.6694 64.6081 70.6316 64.5427L57.6868 42.1177C58.0715 41.8249 58.3942 41.4587 58.6363 41.0403C58.8784 40.6219 59.0351 40.1596 59.0973 39.6802C59.1103 39.5762 59.0876 39.4722 59.0973 39.3682C59.4818 39.5798 59.9013 39.7202 60.3356 39.7826C60.4898 39.8019 60.645 39.8117 60.8003 39.8118C61.6923 39.808 62.5526 39.4807 63.2216 38.8909C63.8907 38.301 64.3231 37.4885 64.4387 36.6041C64.4533 36.4871 64.4501 36.3717 64.4533 36.2547C64.8419 36.4735 65.2679 36.6179 65.7095 36.6805C65.8636 36.6999 66.0188 36.7096 66.1742 36.7097C67.068 36.7079 67.9306 36.3809 68.601 35.7897C69.2714 35.1986 69.7038 34.3837 69.8175 33.4971C69.9025 32.7908 69.777 32.0751 69.4567 31.4398C69.4558 31.3481 69.4318 31.2581 69.3868 31.1782C68.1843 29.0917 65.5876 28.0208 62.0158 28.1671C58.1233 28.4558 54.3536 29.6583 51.013 31.6771L51 31.6836H50.9886C47.5677 33.57 44.6385 36.2347 42.4378 39.4625C40.5382 42.4638 40.1628 45.267 41.3605 47.3535C41.3735 47.3746 41.3978 47.3843 41.4125 47.4038C41.6937 47.8808 42.0804 48.2871 42.5429 48.5916C43.0054 48.8961 43.5314 49.0907 44.0807 49.1605C44.2363 49.1833 44.3932 49.1958 44.5503 49.1978ZM52.5762 42.6458C52.489 43.3086 52.1438 43.9101 51.6156 44.3197C51.0873 44.7292 50.4188 44.9137 49.7552 44.8331C49.1747 44.7599 48.6387 44.4836 48.2423 44.0531L52.482 41.6042C52.5884 41.9405 52.6205 42.2959 52.5762 42.6458ZM57.955 39.5405C57.8707 40.2044 57.5261 40.8076 56.9971 41.2175C56.468 41.6273 55.7979 41.8103 55.134 41.7261C54.5527 41.6536 54.016 41.3772 53.6195 40.9461L57.8656 38.4956C57.969 38.8336 57.9995 39.1898 57.955 39.5405ZM63.2947 36.453C63.2107 37.1175 62.8669 37.7217 62.3385 38.1334C61.8102 38.5452 61.1403 38.7309 60.4753 38.65C59.8925 38.5786 59.3534 38.3042 58.9527 37.8748L63.2021 35.4211C63.3073 35.756 63.3389 36.1096 63.2947 36.4578V36.453ZM68.6751 33.346C68.5879 34.0083 68.2429 34.6094 67.7149 35.0186C67.187 35.4279 66.5188 35.6122 65.8557 35.5316C65.2741 35.4593 64.7372 35.1822 64.3412 34.75L68.5808 32.3125C68.6868 32.6477 68.7189 33.002 68.6751 33.3508V33.346ZM62.063 29.3176C64.871 29.2055 66.9591 29.8961 68.0657 31.2773L63.8407 33.7148C63.6267 33.4056 63.3899 33.1129 63.1322 32.839C63.0851 32.7886 63.0331 32.7415 62.9843 32.6927C62.6182 32.3125 62.2141 31.9705 61.7786 31.6722C61.7477 31.6511 61.7136 31.6348 61.6811 31.6137C61.2313 31.3178 60.7541 31.0658 60.256 30.8613C60.23 30.85 60.2056 30.8353 60.1796 30.8256C59.6715 30.6262 59.1468 30.4723 58.6115 30.3657C58.5432 30.3511 58.4766 30.3332 58.4067 30.3202C58.0307 30.2496 57.6509 30.2008 57.2692 30.174C58.8246 29.6872 60.4353 29.3995 62.063 29.3176ZM54.8512 31.4691C54.9617 31.448 55.0706 31.4463 55.1762 31.4285C55.5776 31.3661 55.9825 31.3292 56.3885 31.318C56.5591 31.318 56.7248 31.318 56.8922 31.3293C57.2306 31.3392 57.5681 31.3691 57.903 31.4187C58.0655 31.4431 58.2426 31.4707 58.4083 31.5065C58.739 31.5773 59.0647 31.6696 59.3833 31.7827C59.5231 31.8298 59.6661 31.8688 59.801 31.9241C60.2395 32.1002 60.6601 32.3179 61.0571 32.5741C61.4413 32.8327 61.7979 33.13 62.1215 33.4613C62.2255 33.567 62.3148 33.6888 62.4123 33.801C62.5488 33.9635 62.6707 34.1373 62.7926 34.3112L58.2296 36.9551L58.1662 36.8625C58.0427 36.6658 57.916 36.4708 57.7876 36.2758C57.7502 36.2222 57.7161 36.1653 57.6787 36.1133C57.513 35.8718 57.3434 35.6345 57.1701 35.4016C57.1067 35.3171 57.0417 35.2391 56.9783 35.153C56.8613 35.0018 56.746 34.8523 56.6257 34.7077C56.551 34.6151 56.4746 34.5257 56.3982 34.4347C56.2877 34.3047 56.1756 34.178 56.0635 34.0528C55.9838 33.9651 55.901 33.8773 55.823 33.7928C55.7027 33.6645 55.5792 33.5426 55.4573 33.4223C55.3875 33.3541 55.3192 33.281 55.2493 33.216C55.0657 33.0437 54.8837 32.891 54.7001 32.7285C54.6286 32.67 54.5571 32.618 54.4856 32.566C54.3637 32.4717 54.2418 32.3791 54.1216 32.2946C54.0436 32.241 53.9591 32.1922 53.8876 32.1418C53.7706 32.0671 53.6536 31.9972 53.5366 31.9338C53.4976 31.9127 53.457 31.8835 53.418 31.864C53.8856 31.698 54.3646 31.566 54.8512 31.4691ZM51.572 32.683C51.572 32.683 51.5915 32.683 51.5996 32.683C51.7156 32.6237 51.8448 32.5951 51.975 32.6001C52.0221 32.6001 52.079 32.6196 52.1375 32.6261C52.259 32.6423 52.3787 32.6701 52.495 32.709C52.5697 32.735 52.6575 32.774 52.729 32.8097C52.8615 32.8672 52.9907 32.9323 53.1157 33.0047C53.2051 33.0567 53.2977 33.1152 53.392 33.177C53.5333 33.2712 53.6812 33.3801 53.8323 33.502C53.9282 33.5767 54.0241 33.6498 54.1232 33.7343C54.2955 33.8806 54.4742 34.0496 54.6546 34.2218C54.7391 34.3063 54.8171 34.3843 54.9097 34.4688C55.1795 34.7467 55.4541 35.0506 55.732 35.3902C55.7677 35.4341 55.8035 35.4877 55.8392 35.5316C56.0808 35.8317 56.3229 36.1567 56.5656 36.5066C56.6631 36.6463 56.759 36.8007 56.8565 36.947C56.9816 37.1387 57.1067 37.3418 57.2318 37.545L52.95 40.002C52.8622 39.8395 52.7761 39.677 52.6932 39.5145C52.5973 39.326 52.4998 39.1391 52.4121 38.9506C52.2902 38.6922 52.1813 38.4371 52.0757 38.1803C52.0026 38.0065 51.9246 37.8293 51.858 37.6571C51.7523 37.3776 51.6646 37.1062 51.5801 36.8348C51.5346 36.6951 51.481 36.5505 51.442 36.4123C51.3316 36.0279 51.2415 35.6379 51.1722 35.244C51.121 34.9402 51.089 34.6336 51.0763 34.3258C51.052 33.4873 51.2242 32.8845 51.572 32.683ZM46.775 39.8167C46.788 39.6542 46.775 39.4836 46.8075 39.3146C46.8838 38.8119 47.0067 38.3174 47.1747 37.8375C47.3475 37.3643 47.5601 36.9066 47.8101 36.4692C47.8767 36.349 47.9498 36.2336 48.0213 36.1166C48.2342 35.7671 48.4692 35.4317 48.725 35.1123C48.7965 35.0246 48.8615 34.932 48.9378 34.8442C49.2459 34.4967 49.5777 34.1709 49.9307 33.8692C49.9307 33.9228 49.9307 33.9846 49.9307 34.0317C49.9307 34.0788 49.9307 34.1942 49.9307 34.2706C49.936 34.6582 49.9697 35.0449 50.0315 35.4276C50.1062 35.8554 50.2033 36.279 50.3223 36.6967C50.363 36.8413 50.4198 36.9925 50.467 37.1403C50.5596 37.4393 50.6555 37.7383 50.7725 38.0471C50.8375 38.2193 50.9155 38.3948 50.9886 38.5703C51.1088 38.8612 51.2291 39.1488 51.3688 39.443C51.455 39.6282 51.5525 39.8135 51.6467 40.0003C51.741 40.1872 51.832 40.3838 51.936 40.5772L47.3681 43.2276C47.2966 43.0651 47.2251 42.9172 47.165 42.758C47.0951 42.5678 47.0203 42.381 46.9667 42.186C46.8979 41.9105 46.8464 41.631 46.8123 41.3491C46.7863 41.159 46.749 40.9705 46.7392 40.7771C46.7293 40.4565 46.7413 40.1357 46.775 39.8167ZM43.4112 40.0848C44.2929 38.7253 45.3422 37.4821 46.5345 36.3847C46.365 36.7292 46.2164 37.0836 46.0892 37.4458C45.9123 37.9518 45.7796 38.4721 45.6927 39.001C45.6927 39.0497 45.6716 39.0985 45.6651 39.1488C45.5933 39.6329 45.5639 40.1222 45.5773 40.6113C45.5773 40.6812 45.5773 40.7511 45.5773 40.821C45.6006 41.2878 45.6653 41.7517 45.7707 42.2071C45.7886 42.2818 45.8065 42.3566 45.826 42.4297C45.9431 42.8765 46.1008 43.3117 46.2972 43.7297C46.3102 43.7573 46.3151 43.7882 46.3281 43.8158L42.1031 46.2533C41.8297 45.194 41.8056 44.0857 42.0325 43.0154C42.2595 41.9452 42.7314 40.9421 43.4112 40.0848ZM46.9521 44.7973C47.058 45.1338 47.0896 45.4892 47.0447 45.839C46.9867 46.3141 46.7941 46.7628 46.4896 47.1322C46.1851 47.5016 45.7814 47.7763 45.3261 47.924C44.8707 48.0717 44.3827 48.0862 43.9193 47.9658C43.456 47.8455 43.0367 47.5952 42.7108 47.2446L46.9521 44.7973Z" stroke="black" stroke-width="0.452174" mask="url(#path-12-outside-1_18_33)"/>
</svg>
