<svg width="128" height="128" viewBox="0 0 128 128" fill="none" xmlns="http://www.w3.org/2000/svg">
<path d="M113.404 64C113.404 67.4043 94.3404 64 63.7021 128C32.383 64 14 66.0426 14 64C14 28.6538 36.2524 0 63.7021 0C91.1519 0 113.404 28.6538 113.404 64Z" fill="#0168F9"/>
<circle cx="63.5" cy="45.5" r="29.5" fill="white" stroke="#0168F9" stroke-width="2"/>
<path d="M63.4835 21.88C63.337 21.8822 63.193 21.9187 63.0631 21.9865L43.3231 32.3265C43.1711 32.4063 43.0439 32.5261 42.9552 32.6731C42.8666 32.82 42.8198 32.9884 42.82 33.16V35.98C42.82 36.2293 42.9191 36.4684 43.0954 36.6447C43.2716 36.8209 43.5107 36.92 43.76 36.92H44.7V38.2364C44.7 39.3756 45.5124 40.3463 46.58 40.6066V57.611H43.8536L44.0097 57.6239C42.8516 57.4289 41.88 58.4222 41.88 59.5094V62.0925C41.88 63.2019 42.758 64.18 43.8536 64.18H83.0527C84.1484 64.18 85.0264 63.2752 85.0264 62.188V59.6048C85.0264 58.5177 84.1484 57.611 83.0527 57.611H80.42V40.6066C81.4876 40.3463 82.3 39.3756 82.3 38.2364V36.92H83.24C83.4893 36.92 83.7284 36.8209 83.9047 36.6447C84.0809 36.4684 84.18 36.2293 84.18 35.98V33.16C84.1802 32.9884 84.1335 32.82 84.0448 32.6731C83.9561 32.5261 83.8289 32.4063 83.677 32.3265L63.937 21.9865C63.7971 21.9135 63.6412 21.8769 63.4835 21.88ZM63.5 23.883L82.3 33.7291V35.04H81.5179C81.4164 35.0232 81.3128 35.0232 81.2113 35.04H72.105C72.0523 35.0312 71.9988 35.0269 71.9453 35.0272C71.8998 35.0281 71.8544 35.0324 71.8095 35.04H68.3579C68.2564 35.0232 68.1528 35.0232 68.0513 35.04H58.945C58.8923 35.0312 58.8388 35.0269 58.7853 35.0272C58.7398 35.0281 58.6944 35.0324 58.6495 35.04H55.1979C55.0964 35.0232 54.9928 35.0232 54.8913 35.04H45.785C45.7323 35.0312 45.6788 35.0269 45.6253 35.0272C45.5798 35.0281 45.5344 35.0324 45.4895 35.04H44.7V33.7291L63.5 23.883ZM46.58 36.92H54.1V38.2364C54.1 38.595 53.895 38.8 53.5364 38.8H47.1436C46.785 38.8 46.58 38.595 46.58 38.2364V36.92ZM55.98 36.92H57.86V38.2364C57.86 39.3756 58.6724 40.3463 59.74 40.6066V57.611H54.1V40.6066C55.1676 40.3463 55.98 39.3756 55.98 38.2364V36.92ZM59.74 36.92H67.26V38.2364C67.26 38.595 67.055 38.8 66.6964 38.8H60.3036C59.945 38.8 59.74 38.595 59.74 38.2364V36.92ZM69.14 36.92H71.02V38.2364C71.02 39.3756 71.8324 40.3463 72.9 40.6066V57.611H67.26V40.6066C68.3276 40.3463 69.14 39.3756 69.14 38.2364V36.92ZM72.9 36.92H80.42V38.2364C80.42 38.595 80.215 38.8 79.8564 38.8H73.4636C73.105 38.8 72.9 38.595 72.9 38.2364V36.92ZM48.46 40.68H52.22V57.6H48.46V40.68ZM61.62 40.68H65.38V57.6H61.62V40.68ZM74.78 40.68H78.54V57.6H74.78V40.68ZM43.7453 59.4837C43.7813 59.4882 43.8174 59.4907 43.8536 59.491H83.0527C83.0851 59.491 83.1464 59.5433 83.1464 59.6048V62.188C83.1464 62.2495 83.0851 62.3 83.0527 62.3H43.8536C43.8213 62.3 43.76 62.3217 43.76 62.0925V59.5094C43.76 59.4876 43.7519 59.4873 43.7453 59.4837Z" fill="black"/>
</svg>
