<svg width="128" height="128" viewBox="0 0 128 128" fill="none" xmlns="http://www.w3.org/2000/svg">
<path d="M113.404 64C113.404 67.4043 94.3404 64 63.7021 128C32.383 64 14 66.0426 14 64C14 28.6538 36.2524 0 63.7021 0C91.1519 0 113.404 28.6538 113.404 64Z" fill="#FF0000"/>
<circle cx="63.5" cy="45.5" r="29.5" fill="white" stroke="#FF0000" stroke-width="2"/>
<g clip-path="url(#clip0_19_49)">
<path d="M85 41H82.8C82.4 38.7 81.6 36.5 80.5 34.6C81.4 34.1 82 33.1 82 32V30C82 29.4 81.6 29.0001 81.0001 29.0001H75.6001C73.4001 27.3001 70.8001 26.1001 68.0001 25.5001V24C68 23.4 67.6 23 67 23H61C60.4 23 60 23.4 60 24V25.5C57.2 26.1 54.6001 27.3 52.4001 29H47C46.4 29 46 29.4 46 30V32C46 33.1 46.6001 34.0999 47.5001 34.6C46.4001 36.5 45.6001 38.7 45.2001 41H43.0001C42.4 41 42 41.4 42 42V44C42 45.7 43.3 47 45 47H45.3C45.6 48.8 46.1 50.5 46.8 52C46.4 52.1001 46 52.5 46 53V55C46 56.7 47.3 58 49 58H51.0001C51.1001 58 51.1001 58 51.2 58C52.6 59.3 54.2 60.4 56.0001 61.2L55.2001 63.2C54.7001 64.3 53.6001 65 52.4001 65H51.0001C50.4 65 50.0001 65.4 50.0001 65.9999C50.0001 66.5999 50.4 67 51 67H52.3C54.3 67 56.0999 65.8 56.8999 63.9L57.6999 61.9C58.3999 62.2 59.2 62.3999 60 62.5C60.3 63.9 61.5 65 62.8999 65H64.8999C66.4 65 67.5999 64 67.7999 62.6C68.4999 62.4 69.2999 62.3 69.9999 62C69.9999 62 70.0999 62 70.0999 61.9L70.8999 63.9C71.7 65.8 73.5 67 75.5 67H77C77.6 67 78 66.6 78 66C78 65.4001 77.6 65.0001 77 65.0001H75.7C74.5 65.0001 73.4 64.3001 72.9 63.2001L66.2 47.4C67.3 46.7 68 45.5 68 44.1C68 41.9 66.2 40.1 64 40.1C61.8 40.1 60 41.9 60 44.1C60 45.5 60.7001 46.7 61.8 47.4L56.7 59.3999C55.4001 58.7999 54.2 57.9999 53.1 57.0999C53.5001 56.6999 53.8 56.0999 53.9 55.3999L54.0001 55.2999L59.7 49.5999C60.1001 49.1999 60.1001 48.5999 59.7 48.1999C59.3 47.7998 58.7001 47.7998 58.3 48.1999L53.9 52.5999C53.8 52.2999 53.4 51.9999 53 51.9999H49C48.2 50.3999 47.6 48.7999 47.2001 46.9999C48.4 46.9 49.3 46.1 49.7 45H57C57.6 45 57.9999 44.6 57.9999 44C57.9999 43.4001 57.5999 43.0001 57 43.0001H50V42.0001C50 41.4001 49.6 41.0001 49 41.0001H47.3C47.7001 38.8001 48.5001 36.8001 49.6001 35.0001H51.0001C51.7 35.0001 52.4001 34.7001 52.9001 34.3002L58.3 39.7001C58.5 40.0002 58.8 40.0002 59 40.0002C59.2 40.0002 59.5 39.9001 59.6999 39.7001C60.1 39.3001 60.1 38.7002 59.6999 38.3001L54 32.6002C54 32.6002 53.8999 32.5001 53.8 32.5001C54 32.4001 54 32.2001 54 32.0001V30.3C55.9 28.9 57.9999 27.9 60.4 27.4C60.9 28.4 61.9 29 63 29V37C63 37.6 63.4001 38 64 38C64.5999 38 65 37.5999 65 37V29C66.1 29 67.0999 28.4 67.6 27.4C70 27.9 72.1 28.9 74 30.3V32C74 32.2 74 32.4 74.1001 32.6C74 32.6 74 32.7 73.9001 32.7L68.2 38.4C67.8 38.8 67.8 39.4 68.2 39.8C68.4 40 68.7 40 69 40C69.3 40 69.5 39.9 69.7 39.7L75.0999 34.3C75.5999 34.7 76.3 35 76.9999 35H78.3999C79.4999 36.7999 80.2999 38.8 80.7 41H79C78.3999 41 78 41.4 78 41.9999V42.9999H71C70.3999 42.9999 70 43.3999 70 43.9999C70 44.5998 70.4 45 71 45H78.2001C78.6001 46.1 79.6001 46.9 80.7001 47C80.4001 48.8 79.8 50.5 79 52H75C74.6 52 74.2 52.3 74.1 52.7001L69.7 48.3001C69.2999 47.9 68.7 47.9 68.3 48.3001C67.8999 48.7001 67.8999 49.3001 68.3 49.7001L73.9999 55.4001L74.1 55.5001C74.2 56.1001 74.5 56.7001 74.9 57.2001C74.7 57.3001 74.6 57.5001 74.4999 57.6002C74.1999 57.8001 73.8999 58.1001 73.5999 58.3001C73.0999 58.6001 72.9999 59.2001 73.2999 59.7001C73.5999 60.2001 74.1999 60.3001 74.6999 60.0001C75.0999 59.8002 75.3999 59.5001 75.7999 59.2001C76.1999 58.9001 76.5999 58.5001 76.9999 58.1001H77.1H79.1C80.8 58.1001 82.1 56.8002 82.1 55.1001V53.1001C82.1 52.6001 81.8 52.2001 81.3 52.1002C82 50.5002 82.6 48.8002 82.8 47.1001H83C84.7 47.1001 86 45.8002 86 44.1001V42.1001C86 41.4 85.6 41 85 41ZM66 62C66 62.6 65.6 63 65.0001 63H63C62.4 63 62.0001 62.5999 62.0001 62V61H66V62ZM64 42C65.1 42 66 42.9 66 44C66 45.1 65.1 46 64 46C62.9 46 62 45.0999 62 43.9999C62 42.8999 62.9 42 64 42ZM63.7 48C63.8 48 63.9 48 64 48C64.1 48 64.2 48 64.3 48L69.4 60.1C68.9 60.3 68.4 60.4 68 60.5V60C68 59.4 67.5999 59.0001 67 59.0001H65V51.0001C65 50.4001 64.5999 50.0001 64 50.0001C63.4001 50.0001 63 50.4001 63 51.0001V59.0001H61C60.4 59.0001 60 59.4001 60 60V60.5C59.5001 60.4 59.0001 60.2 58.6 60.1L63.7 48ZM48 54H51.9999V54.9999C51.9999 55.6 51.5999 55.9999 51 55.9999H49C48.4 55.9999 48.0001 55.5999 48.0001 54.9999L48 54ZM48 43V43.9999C48 44.6 47.5999 44.9999 47 44.9999H45C44.4 44.9999 44 44.5999 44 43.9999V43H48ZM52 32C52 32.6 51.6 32.9999 51.0001 32.9999H49C48.4 32.9999 48.0001 32.5999 48.0001 32V31H52V32ZM66 26C66 26.6 65.6 27 65.0001 27H63C62.4 27 62.0001 26.5999 62.0001 26V25H66V26ZM80 32C80 32.6 79.6 32.9999 79 32.9999H77C76.4 32.9999 76.0001 32.5999 76.0001 32V31H80V32ZM80 55C80 55.6 79.6 56 79 56H77C76.4 56 76.0001 55.6 76.0001 55V54.0001H80V55ZM84 44C84 44.6 83.5999 45 83 45H81C80.4 45 80 44.6 80 44V43.0001H84V44Z" fill="black"/>
</g>
<defs>
<clipPath id="clip0_19_49">
<rect width="44" height="44" fill="white" transform="translate(42 23)"/>
</clipPath>
</defs>
</svg>
