<svg width="128" height="128" viewBox="0 0 128 128" fill="none" xmlns="http://www.w3.org/2000/svg">
<g clip-path="url(#clip0_18_37)">
<path d="M113.404 64C113.404 67.4043 94.3404 64 63.7021 128C32.383 64 14 66.0426 14 64C14 28.6538 36.2524 0 63.7021 0C91.1519 0 113.404 28.6538 113.404 64Z" fill="#838383"/>
<circle cx="63.5" cy="45.5" r="29.5" fill="white" stroke="#838383" stroke-width="2"/>
<mask id="mask0_18_37" style="mask-type:luminance" maskUnits="userSpaceOnUse" x="43" y="25" width="44" height="38">
<path d="M86.1351 25H43V63H86.1351V25Z" fill="white"/>
</mask>
<g mask="url(#mask0_18_37)">
<path d="M45.2946 57.3635C45.2326 57.333 45.1673 57.31 45.1001 57.2949C43.4911 57.1921 42.7576 56.3284 43.0829 54.7435C43.2738 53.8299 43.576 52.9432 43.9829 52.1032C44.2376 51.5756 44.7622 51.1789 45.1521 50.738C45.0231 50.1732 44.7703 49.566 44.7782 48.9618C44.7857 48.377 45.0614 47.7957 45.232 47.166C43.9623 45.9805 43.927 45.7268 44.827 43.6707C44.3289 43.1553 44.2741 42.5314 44.3519 41.822C44.5669 39.8671 44.8235 37.9229 45.5709 36.0886C47.4709 31.4261 50.8397 28.2266 55.5484 26.5599C61.2664 24.5361 67.039 24.5058 72.731 26.7298C75.3609 27.7569 77.6825 29.2883 79.3402 31.6378C79.9966 32.5335 80.5474 33.5018 80.9819 34.5236C81.5577 35.9565 81.9679 37.4585 82.3996 38.9455C82.7 39.9799 82.7934 41.0271 82.0402 41.9989C82.7436 42.5673 83.3554 43.1339 83.6506 43.9648C83.9563 44.8244 83.7255 45.5726 83.2336 46.3185C84.1333 47.2374 84.2624 48.3141 83.8595 49.5318C84.6213 50.1153 85.3181 50.7853 85.6324 51.7334C85.8142 52.2247 85.9313 52.7377 85.9811 53.2593C86.0765 54.9399 85.4178 55.6858 83.786 55.8772C83.7466 56.6312 83.7393 57.3825 83.6623 58.1263C83.5059 59.641 82.6278 60.624 81.1934 60.9815C79.8284 61.307 78.4441 61.5469 77.049 61.7006C74.4335 62.0151 71.8138 62.3082 69.1884 62.5166C64.8634 62.8588 60.5294 63.0139 56.1975 62.6402C53.7782 62.4316 51.3633 62.1658 48.9523 61.8755C48.2581 61.7728 47.5771 61.5949 46.9215 61.3448C46.5275 61.2155 46.1805 60.9729 45.9242 60.6469C45.668 60.3209 45.5139 59.9266 45.4813 59.5132C45.3909 58.7947 45.3536 58.0687 45.2946 57.3635ZM80.8277 41.1486C80.4553 39.585 80.1525 38.0999 79.7407 36.6458C79.3409 35.1434 78.6548 33.7324 77.7196 32.4903C76.0862 30.3741 73.9085 29.0564 71.4635 28.1379C67.7579 26.7461 63.9251 26.4947 60.0489 27.1357C54.6503 28.0275 50.3367 30.5576 47.7015 35.5515C46.6479 37.5479 46.1565 39.688 45.7706 41.9393C46.0531 42.0567 46.3453 42.1499 46.6437 42.2176C47.6266 42.3484 48.6154 42.5543 49.5989 42.5382C53.4612 42.4746 57.3221 42.3272 61.1841 42.2301C64.3155 42.1514 67.4474 42.102 70.5792 42.0354C73.4467 41.9747 76.3154 41.9208 79.1568 41.4692C79.6972 41.3831 80.2323 41.2638 80.8277 41.1486ZM78.1715 54.7675C77.694 55.1365 77.2428 55.4521 76.8289 55.8123C76.0768 56.4653 75.2764 56.5769 74.4006 56.1018C74.0598 55.9338 73.7304 55.7434 73.4148 55.5319C72.6124 54.9472 71.8336 54.8924 70.9879 55.4657C70.4227 55.8303 69.8349 56.1591 69.2283 56.4494C68.7358 56.7144 68.1862 56.8549 67.627 56.8583C67.0679 56.8617 66.5164 56.7282 66.0209 56.4692C65.5758 56.2496 65.1368 56.0141 64.7136 55.7552C64.4709 55.5882 64.187 55.492 63.8929 55.4771C63.5988 55.4618 63.3063 55.5285 63.0476 55.6696C62.53 55.9388 62.0126 56.2134 61.5206 56.5255C61.1574 56.777 60.7343 56.9282 60.2938 56.9645C59.8535 57.0005 59.4113 56.9199 59.012 56.7308C58.5021 56.5115 58.0178 56.2368 57.5676 55.9124C56.8182 55.3535 56.0611 55.3188 55.2696 55.7447C54.8075 55.9935 54.369 56.288 53.9255 56.5707C52.7843 57.2986 51.6622 57.2409 50.5599 56.4911C50.2941 56.3104 50.0431 56.1072 49.7906 55.9075C49.132 55.3864 48.4473 55.3804 47.759 55.8261C47.4495 56.0266 47.1716 56.2754 46.9235 56.4679C47.0262 57.1225 47.0997 57.6733 47.199 58.2192C47.4165 59.416 47.4916 59.4877 48.664 59.7352C48.7496 59.7534 48.8383 59.7579 48.9248 59.773C52.5621 60.3872 56.2402 60.7293 59.9283 60.7961C65.8576 60.9419 71.7316 60.2406 77.6004 59.5132C78.4975 59.4021 79.3884 59.2232 80.2735 59.0352C80.9167 58.8983 81.2682 58.4565 81.3313 57.7995C81.3827 57.2594 81.426 56.7185 81.4771 56.1255C80.1385 56.2728 79.1341 55.7408 78.1715 54.7675ZM44.7601 55.6404C45.1593 55.438 45.4714 55.3001 45.7626 55.1269C46.0635 54.9472 46.3358 54.72 46.6347 54.5364C48.0787 53.6495 49.371 53.7301 50.6868 54.78C50.8694 54.9261 51.0508 55.074 51.2312 55.2236C51.8225 55.7132 52.4345 55.7541 53.0865 55.3368C53.5466 55.026 54.0233 54.7401 54.5144 54.4809C55.8249 53.8305 57.0992 53.8375 58.3057 54.7633C58.6121 54.9876 58.9356 55.1877 59.2733 55.3614C59.5127 55.5058 59.7898 55.5752 60.0691 55.5603C60.3483 55.5457 60.6167 55.4474 60.8395 55.2784C61.3207 54.9467 61.8292 54.6564 62.3597 54.4107C63.4097 53.9358 64.4535 53.9314 65.4492 54.5977C65.7159 54.7764 66.0045 54.9219 66.2795 55.0883C66.6469 55.3342 67.0774 55.4688 67.5193 55.4756C67.9613 55.4826 68.3959 55.3619 68.7708 55.1277C69.3281 54.8066 69.8941 54.4989 70.4381 54.1565C71.602 53.4247 72.7357 53.4617 73.9046 54.1661C75.34 55.0314 75.3518 55.0121 76.6798 54.0193C77.7923 53.1871 78.6287 53.1597 79.8231 53.9251C80.1567 54.1387 80.4796 54.3701 80.8332 54.6108C81.2953 54.0347 81.4247 53.0916 82.2593 53.1498C82.9097 53.1952 83.5372 53.5845 84.1933 53.8279C84.85 52.8397 84.2744 51.1683 83.0779 50.5319C82.1046 50.8229 81.2273 51.1636 80.3184 51.3445C76.9236 52.0216 73.4665 52.1382 70.0281 52.4266C68.348 52.5677 66.6631 52.3611 64.9846 52.5648C64.6664 52.6032 64.3206 52.4026 63.986 52.3184C63.6587 52.2357 63.3294 52.0917 63.0012 52.0923C59.5184 52.0988 56.0346 52.1768 52.5529 52.1311C50.8926 52.1095 49.2345 51.8549 47.5736 51.7303C47.2574 51.7042 46.9393 51.7457 46.6402 51.8513C45.4161 52.3126 44.6422 53.818 44.7601 55.6409V55.6404ZM56.5161 44.0076C56.5259 44.0665 56.5356 44.1253 56.5452 44.1842C58.8983 46.0098 61.2392 47.8512 63.6093 49.6542C64.8333 50.5853 64.6596 50.916 65.9938 49.4892C67.5515 47.8243 69.0358 46.0918 70.5484 44.3854C70.6767 44.2405 70.7777 44.0713 71.0095 43.7495L56.5161 44.0076ZM61.4383 50.3431C60.5374 49.5862 59.7915 48.9797 59.0708 48.3445C58.7389 48.0518 58.4017 47.9892 57.9582 47.9964C54.7128 48.0477 51.4663 48.3759 48.2199 47.9784C47.8239 47.93 47.4087 48.0256 47.0044 48.0659C46.6119 48.1047 46.4668 48.3719 46.4334 48.7264C46.3881 49.2081 46.5867 49.5491 47.1353 49.6908C47.8089 49.888 48.5019 50.0119 49.2021 50.0605C52.9752 50.1952 56.7506 50.2856 60.5242 50.3874C60.7504 50.3943 60.9782 50.3674 61.4383 50.3438V50.3431ZM82.2076 47.1111C81.1204 47.3896 80.1165 47.7453 79.0835 47.8925C76.1044 48.3301 73.0967 48.5438 70.0855 48.5315C69.8915 48.5131 69.6972 48.5638 69.5368 48.6744C68.975 49.2517 68.4491 49.8637 67.8406 50.5413C68.7198 50.5413 69.4452 50.587 70.1635 50.5331C72.7868 50.3368 75.4123 50.1523 78.0273 49.8703C79.2752 49.7338 80.5077 49.4825 81.7095 49.1198C82.7939 48.7942 82.9342 47.9976 82.2076 47.1118V47.1111ZM71.2961 46.5623C71.6936 46.5623 71.927 46.5751 72.1583 46.5602C74.0835 46.4372 76.0168 46.3812 77.93 46.1559C79.1419 45.9846 80.3359 45.7023 81.4964 45.3127C82.2402 45.0812 82.3863 44.6529 82.1784 44.0339C81.9361 43.3133 81.4143 42.9408 80.7748 43.0612C78.7059 43.4516 76.6067 43.6585 74.5013 43.6798C74.0968 43.6837 73.6928 43.7186 73.431 43.7311L71.2961 46.5623ZM46.4919 43.7C46.2839 44.0723 46.0969 44.4559 45.9319 44.8492C45.7361 45.4004 45.8081 45.5822 46.3828 45.7758C46.9633 45.9723 47.5616 46.1123 48.169 46.1939C50.6465 46.5192 53.1346 46.3768 55.62 46.3047C55.8446 46.2775 56.0673 46.235 56.2861 46.1775C55.8852 45.8735 55.6156 45.6563 55.3328 45.4577C54.9021 45.1553 54.3803 44.9363 54.049 44.5505C53.7067 44.1522 53.3506 44.1109 52.9021 44.1104C50.7985 44.1086 48.687 44.2467 46.4919 43.7Z" fill="black"/>
<path d="M60.8492 31.0786C60.8884 30.7385 60.829 30.3824 61.2346 30.253C61.6316 30.1264 61.932 30.3225 62.0958 30.6705C62.2735 31.0357 62.413 31.4184 62.5116 31.8124C62.5951 32.1681 62.5248 32.5255 62.1246 32.6881C61.7713 32.8316 61.3885 32.6672 61.2021 32.2395C61.0609 31.8601 60.9431 31.4724 60.8492 31.0786Z" fill="black"/>
<path d="M54.4812 35.7999C54.6111 35.8906 54.9281 35.9964 54.979 36.1765C55.0098 36.3088 55.0114 36.4463 54.9838 36.5792C54.9562 36.7123 54.8999 36.8376 54.819 36.9468C54.3841 37.4146 53.7657 37.563 53.1482 37.5861C52.7018 37.6032 52.5033 37.0916 52.8059 36.6746C53.1809 36.1591 53.7195 35.8802 54.4812 35.7999Z" fill="black"/>
<path d="M75.6042 39.7533C75.321 39.5425 75.0062 39.4224 74.9264 39.2129C74.8628 39.0458 75.0242 38.6862 75.1953 38.5597C75.5414 38.2953 75.9339 38.0989 76.353 37.9808C76.5726 37.9245 76.9854 38.0664 77.0829 38.2445C77.1221 38.3743 77.1275 38.512 77.0986 38.6445C77.0699 38.777 77.0078 38.9 76.9184 39.0018C76.552 39.3046 76.0872 39.4886 75.6042 39.7533Z" fill="black"/>
<path d="M66.0883 37.0239C66.064 36.4543 66.4915 36.1693 66.9599 36.3836C67.3869 36.5789 67.878 37.5352 67.7966 38.0125C67.7235 38.4404 67.3046 38.6641 66.9544 38.4183C66.4975 38.0818 66.1874 37.5826 66.0883 37.0239Z" fill="black"/>
<path d="M74.3415 33.1795C74.3381 33.6896 73.6397 34.3912 73.135 34.3898C72.8168 34.389 72.5164 34.036 72.6742 33.7144C72.8667 33.3027 73.153 32.9419 73.5106 32.661C73.8913 32.384 74.3449 32.7115 74.3415 33.1795Z" fill="black"/>
<path d="M58.9665 40.7991C58.4281 40.7685 57.7981 40.1307 57.8085 39.6891C57.8139 39.6017 57.837 39.5163 57.8762 39.438C57.9154 39.3597 57.97 39.2901 58.0367 39.2334C58.1034 39.1768 58.1811 39.1341 58.2647 39.1081C58.3483 39.0821 58.4364 39.0733 58.5235 39.0821C58.9477 39.1365 59.4333 39.7685 59.4196 40.251C59.41 40.5858 59.2954 40.8243 58.9665 40.7991Z" fill="black"/>
</g>
</g>
<defs>
<clipPath id="clip0_18_37">
<rect width="128" height="128" fill="white"/>
</clipPath>
</defs>
</svg>
